HIERARCHY
ROOT locator2
{
  OFFSET 53.6172 30.1899 0.816905
  CHANNELS 6 Xposition Yposition Zposition Zrotation Xrotation Yrotation
  JOINT koshi
  {
    OFFSET 0 0 0
    CHANNELS 6 Xposition Yposition Zposition Zrotation Xrotation Yrotation
    JOINT sippo01
    {
      OFFSET 0 42.8363 -0.548134
      CHANNELS 6 Xposition Yposition Zposition Zrotation Xrotation Yrotation
      JOINT sippo02
      {
        OFFSET 0 44.0461 -3.28882
        CHANNELS 6 Xposition Yposition Zposition Zrotation Xrotation Yrotation
        JOINT sippo03
        {
          OFFSET 0 34.1929 -2.46662
          CHANNELS 6 Xposition Yposition Zposition Zrotation Xrotation Yrotation
          JOINT sippo04
          {
            OFFSET 0 30.0959 -1.75404
            CHANNELS 6 Xposition Yposition Zposition Zrotation Xrotation Yrotation
            JOINT sippo05
            {
              OFFSET 0 28.3637 -1.75404
              CHANNELS 6 Xposition Yposition Zposition Zrotation Xrotation Yrotation
              JOINT sippo06
              {
                OFFSET 0 31.6071 -3.2043
                CHANNELS 6 Xposition Yposition Zposition Zrotation Xrotation Yrotation
                End Site
                {
                  OFFSET 0 0 0
                }
              }
            }
          }
        }
      }
    }
    JOINT R_momo
    {
      OFFSET -27.891 13.5892 3.92723
      CHANNELS 6 Xposition Yposition Zposition Zrotation Xrotation Yrotation
      JOINT R_hiza
      {
        OFFSET 0 28.01 1.8232
        CHANNELS 6 Xposition Yposition Zposition Zrotation Xrotation Yrotation
        JOINT R_ashi
        {
          OFFSET 0 24.3992 -2.49174
          CHANNELS 6 Xposition Yposition Zposition Zrotation Xrotation Yrotation
          End Site
          {
            OFFSET 0 0 0
          }
        }
      }
    }
    JOINT L_momo
    {
      OFFSET 27.891 13.5892 3.92714
      CHANNELS 6 Xposition Yposition Zposition Zrotation Xrotation Yrotation
      JOINT L_hiza
      {
        OFFSET 0 28.0098 1.82319
        CHANNELS 6 Xposition Yposition Zposition Zrotation Xrotation Yrotation
        JOINT L_ashi
        {
          OFFSET 0 24.3992 -2.49171
          CHANNELS 6 Xposition Yposition Zposition Zrotation Xrotation Yrotation
          End Site
          {
            OFFSET 0 0 0
          }
        }
      }
    }
  }
  JOINT hara
  {
    OFFSET 0 2.15392 0
    CHANNELS 6 Xposition Yposition Zposition Zrotation Xrotation Yrotation
    JOINT mune
    {
      OFFSET 0 62.0609 0.472494
      CHANNELS 6 Xposition Yposition Zposition Zrotation Xrotation Yrotation
      JOINT R_kata
      {
        OFFSET 22.6695 9.65301 -5.3622
        CHANNELS 6 Xposition Yposition Zposition Zrotation Xrotation Yrotation
        JOINT R_hiji
        {
          OFFSET 0 25.813 1.69098
          CHANNELS 6 Xposition Yposition Zposition Zrotation Xrotation Yrotation
          JOINT R_te
          {
            OFFSET 0 28.5636 -0.966307
            CHANNELS 6 Xposition Yposition Zposition Zrotation Xrotation Yrotation
            End Site
            {
              OFFSET 0 0 0
            }
          }
        }
      }
      JOINT L_kata
      {
        OFFSET -22.6695 9.65298 -5.3622
        CHANNELS 6 Xposition Yposition Zposition Zrotation Xrotation Yrotation
        JOINT L_hiji
        {
          OFFSET 0 25.813 1.69102
          CHANNELS 6 Xposition Yposition Zposition Zrotation Xrotation Yrotation
          JOINT L_te
          {
            OFFSET 0 28.5636 -0.966295
            CHANNELS 6 Xposition Yposition Zposition Zrotation Xrotation Yrotation
            End Site
            {
              OFFSET 0 0 0
            }
          }
        }
      }
      JOINT kubi
      {
        OFFSET 0 23.1438 -0.944988
        CHANNELS 6 Xposition Yposition Zposition Zrotation Xrotation Yrotation
        JOINT atama
        {
          OFFSET 0 20.8625 4.12737
          CHANNELS 6 Xposition Yposition Zposition Zrotation Xrotation Yrotation
          JOINT ago
          {
            OFFSET 0 7.552 -7.58201
            CHANNELS 6 Xposition Yposition Zposition Zrotation Xrotation Yrotation
            End Site
            {
              OFFSET 0 0 0
            }
          }
        }
      }
    }
  }
}
MOTION
Frames:	6
Frame Time:	0.0333333
-0.000198809 26.5759 9.57683e-005 -90 -3.50835e-015 -90 0 0 0 -174.666 3.09206 0.502726 5.21541e-007 42.8363 -0.548138 2.96678 -15.9213 3.73739 1.37091e-006 44.0461 -3.28882 5.40037 9.40651 -5.26522 2.86102e-006 34.1929 -2.46661 6.4255 1.07548 -1.69354 -3.8147e-006 30.0959 -1.75404 6.01978 9.41193 -0.734931 -1.90735e-005 28.3636 -1.75403 9.46162 -5.79641 5.76911 -7.62939e-006 31.6072 -3.2043 5.23199 -6.13552 -5.40609 -27.891 13.5892 3.92723 117.517 -18.6524 -48.4413 -1.52588e-005 28.01 1.8232 12.0035 -82.2925 -3.96383 -7.62939e-006 24.3992 -2.49173 -149.824 63.018 -167.607 27.891 13.5892 3.92714 -102.219 -21.3531 59.5725 3.8147e-006 28.0098 1.82319 -3.56773 -68.4998 9.58215 3.8147e-006 24.3992 -2.49172 140.893 67.2516 166.768 6.07673e-007 2.15392 0 5.4806e-008 -0.413068 -5.4806e-008 1.75086e-005 62.0609 0.472498 6.95874e-040 -2.62894e-017 1.51661e-021 22.6695 9.65299 -5.36221 -148.411 2.76351 46.4951 0 25.813 1.69098 179.965 -77.875 179.748 7.10543e-015 28.5636 -0.966313 40.9929 13.2127 -94.3935 -22.6695 9.65298 -5.3622 130.753 -5.25929 -52.4357 -7.6294e-006 25.813 1.69103 -179.768 -75.3128 -178.036 0 28.5636 -0.966301 -44.3367 34.4206 109.995 6.57606e-006 23.1438 -0.94499 5.17996e-007 -4.02512 -5.17996e-007 5.84908e-006 20.8625 4.12737 -0.00528447 -4.07729 -0.148315 -1.49012e-008 7.55202 -7.58201 -1.07942e-005 4.27085 1.0793e-005 
0.000128239 26.6356 0.155591 -90 -3.50835e-015 -90 0 0 0 -174.638 2.98291 0.50814 5.21541e-007 42.8363 -0.548138 2.96408 -15.882 3.73966 1.37082e-006 44.0461 -3.28882 5.35322 9.57374 -5.27148 2.86706e-006 34.1929 -2.46661 6.35831 1.0897 -1.69968 -3.79496e-006 30.0959 -1.75404 5.86706 9.41637 -0.762835 -1.89988e-005 28.3636 -1.75403 9.38885 -5.42379 5.69574 -7.57327e-006 31.6072 -3.2043 5.2211 -5.95418 -5.46814 -27.891 13.5892 3.92723 117.589 -18.7688 -48.4487 -1.52641e-005 28.01 1.8232 12.485 -82.6471 -3.43357 -7.61108e-006 24.3992 -2.49173 -150.047 62.8015 -167.548 27.891 13.5892 3.92714 -102.065 -21.3387 59.6203 3.81779e-006 28.0098 1.82319 -3.42736 -67.9754 9.64405 3.81922e-006 24.3992 -2.49172 140.59 67.667 167.074 6.07673e-007 2.15392 0 -0.19225 -0.206802 -0.0449186 -6.36613e-012 62.0609 0.472498 -5.86584e-035 -2.70514e-016 -1.2424e-017 22.6695 9.653 -5.36221 -148.603 2.3296 45.8832 -7.10543e-015 25.813 1.69098 179.982 -77.681 179.526 0 28.5636 -0.966313 41.2716 13.0632 -94.9867 -22.6695 9.65298 -5.3622 130.685 -5.85954 -52.2488 -7.6294e-006 25.813 1.69103 -179.761 -76.3313 -178.073 2.24782e-009 28.5636 -0.966301 -44.238 34.0034 109.989 -3.29622e-012 23.1438 -0.94499 -0.145811 -4.18165 -0.00692236 -1.10648e-011 20.8625 4.12737 -0.0886507 -4.20977 -0.00471425 -1.49017e-008 7.55202 -7.58201 -1.08126e-005 4.36854 1.08114e-005 
0.000448937 26.6941 0.308067 -90 -3.50835e-015 -90 0 0 0 -174.612 2.88274 0.513415 5.21541e-007 42.8363 -0.548138 2.96408 -15.882 3.73966 1.37082e-006 44.0461 -3.28882 5.30692 9.73773 -5.27738 2.87286e-006 34.1929 -2.46661 6.30438 1.101 -1.7045 -3.77839e-006 30.0959 -1.75404 5.72225 9.42053 -0.790106 -1.89297e-005 28.3636 -1.75403 9.31718 -5.0544 5.6239 -7.51981e-006 31.6072 -3.2043 5.21055 -5.77635 -5.52897 -27.891 13.5892 3.92723 117.666 -18.8921 -48.4564 -1.52697e-005 28.01 1.8232 13.0143 -83.0005 -2.85567 -7.59245e-006 24.3992 -2.49173 -150.266 62.5843 -167.493 27.891 13.5892 3.92714 -101.915 -21.3236 59.6673 3.82079e-006 28.0098 1.82319 -3.29639 -67.4624 9.69808 3.82356e-006 24.3992 -2.49172 140.28 68.0754 167.387 6.07673e-007 2.15392 0 -0.379204 0.000527932 -0.0885102 -7.27607e-012 62.0609 0.472498 9.93923e-017 5.54811e-016 1.2424e-017 22.6695 9.653 -5.36221 -148.789 1.9015 45.2793 1.42109e-014 25.813 1.69098 179.998 -77.491 179.309 0 28.5636 -0.966313 41.5461 12.9162 -95.57 -22.6695 9.65298 -5.3622 130.642 -6.21477 -52.1388 -7.6294e-006 25.813 1.69103 -179.753 -77.3315 -178.109 4.40879e-009 28.5636 -0.966301 -44.2205 33.4479 110.065 -3.63803e-012 23.1438 -0.94499 -0.0760129 -4.33954 -0.166091 -1.13659e-011 20.8625 4.12737 -0.0886759 -4.33799 -0.152799 -1.49016e-008 7.55202 -7.58201 -7.79314e-007 4.44689 1.00472e-005 
0.000772809 26.7532 0.462053 -90 -3.50835e-015 -90 0 0 0 -174.582 2.76804 0.519652 5.21541e-007 42.8363 -0.548138 2.95805 -15.7939 3.74468 1.37061e-006 44.0461 -3.28882 5.25901 9.90768 -5.2832 2.87929e-006 34.1929 -2.46661 6.21827 1.11912 -1.71217 -3.75382e-006 30.0959 -1.75404 5.56612 9.42499 -0.818129 -1.88488e-005 28.3636 -1.75403 9.24533 -4.68117 5.55235 -7.45651e-006 31.6072 -3.2043 5.19971 -5.59289 -5.59164 -27.891 13.5892 3.92723 117.742 -19.0168 -48.4639 -1.52754e-005 28.01 1.8232 13.5952 -83.3504 -2.22658 -7.57388e-006 24.3992 -2.49173 -150.48 62.369 -167.441 27.891 13.5892 3.92714 -101.769 -21.308 59.7129 3.82368e-006 28.0098 1.82319 -3.1693 -66.9413 9.74683 3.82777e-006 24.3992 -2.49172 139.952 68.487 167.715 6.07673e-007 2.15392 7.10543e-015 -0.566021 0.200479 -0.130878 -7.27596e-012 62.0609 0.472498 -9.93923e-017 4.40083e-016 -0 22.6695 9.653 -5.36221 -148.974 1.46838 44.6678 -7.10543e-015 25.813 1.69098 -179.986 -77.299 179.088 -1.42109e-014 28.5636 -0.966313 41.8243 12.7679 -96.1597 -22.6695 9.65298 -5.3622 130.578 -6.69474 -52.1679 -7.6294e-006 25.813 1.69103 -179.744 -78.3416 -178.144 6.53882e-009 28.5636 -0.966301 -43.9642 32.7702 109.756 -4.09284e-012 23.1438 -0.94499 0.0665975 -4.41765 -0.462156 -1.13658e-011 20.8625 4.12737 0.00156107 -4.47071 -0.463807 -1.49017e-008 7.55202 -7.58201 -1.0064e-005 4.5588 9.74599e-007 
0.00109986 26.8129 0.617548 -90 -3.50835e-015 -90 0 0 0 -174.554 2.65879 0.525361 5.21541e-007 42.8363 -0.548138 2.95802 -15.7931 3.74474 1.3706e-006 44.0461 -3.28882 5.21181 10.0749 -5.28859 2.88527e-006 34.1929 -2.46661 6.14069 1.1354 -1.71898 -3.73153e-006 30.0959 -1.75404 5.41354 9.42924 -0.846471 -1.87712e-005 28.3636 -1.75403 9.17394 -4.30808 5.48181 -7.39319e-006 31.6072 -3.2043 5.18902 -5.41155 -5.6535 -27.891 13.5892 3.92723 117.82 -19.143 -48.4712 -1.52812e-005 28.01 1.8232 14.2517 -83.7051 -1.52126 -7.55505e-006 24.3992 -2.49173 -150.694 62.1489 -167.392 27.891 13.5892 3.92714 -101.61 -21.29 59.7627 3.82679e-006 28.0098 1.82319 -3.04666 -66.415 9.79017 3.83211e-006 24.3992 -2.49172 139.607 68.9018 168.06 6.07673e-007 2.15392 7.10543e-015 -0.755255 0.406267 -0.170539 -7.27607e-012 62.0609 0.472498 9.93923e-017 -6.75946e-016 4.96962e-017 22.6695 9.653 -5.36221 -149.16 1.0285 44.0462 -7.10543e-015 25.813 1.69098 -179.97 -77.0963 178.862 0 28.5636 -0.966313 42.6646 12.9368 -97.2141 -22.6695 9.65298 -5.3622 130.605 -7.06713 -52.0493 -7.6294e-006 25.813 1.69103 -179.732 -79.3681 -178.176 8.6452e-009 28.5636 -0.966301 -43.5289 32.0509 109.278 -4.09273e-012 23.1438 -0.94499 0.284665 -4.575 -0.91041 -1.1366e-011 20.8625 4.12737 0.179955 -4.60205 -1.08816 -1.49017e-008 7.55202 -7.58201 -1.00581e-005 4.64829 8.98729e-007 
0.00142055 26.8714 0.770024 -90 -3.50835e-015 -90 0 0 0 -174.524 2.54525 0.531781 5.21541e-007 42.8363 -0.548138 2.95201 -15.7059 3.74978 1.3704e-006 44.0461 -3.28882 5.16677 10.2346 -5.29354 2.89142e-006 34.1929 -2.46661 6.0868 1.14678 -1.72376 -3.71443e-006 30.0959 -1.75404 5.26843 9.43325 -0.872863 -1.87003e-005 28.3636 -1.75403 9.1037 -3.9382 5.4128 -7.33559e-006 31.6072 -3.2043 5.17884 -5.23759 -5.71276 -27.891 13.5892 3.92723 117.893 -19.2625 -48.4779 -1.52867e-005 28.01 1.8232 14.9765 -84.054 -0.748397 -7.53674e-006 24.3992 -2.49173 -150.901 61.9327 -167.348 27.891 13.5892 3.92714 -101.466 -21.2726 59.8081 3.82958e-006 28.0098 1.82319 -2.93216 -65.9018 9.82717 3.83608e-006 24.3992 -2.49172 139.255 69.306 168.411 6.07673e-007 2.15392 3.55271e-015 -0.940808 0.608001 -0.209111 -7.27596e-012 62.0609 0.472498 -1.49049e-012 -8.61141e-016 7.70291e-016 22.6695 9.653 -5.36221 -149.34 0.596283 43.4352 -1.42109e-014 25.813 1.69098 -179.957 -76.3246 178.639 7.10543e-015 28.5636 -0.966313 43.4905 13.0915 -98.2564 -22.6695 9.65298 -5.3622 130.553 -7.41958 -52.1155 -7.6294e-006 25.813 1.69103 -179.698 -81.0339 -178.186 1.16088e-008 28.5636 -0.966301 -43.1474 31.1099 108.695 -4.09273e-012 23.1438 -0.94499 0.568922 -4.65253 -1.64497 -1.1366e-011 20.8625 4.12737 0.443579 -4.60196 -1.69384 -1.49017e-008 7.55202 -7.58201 -7.30107e-006 4.75195 1.05873e-005 
